<svg xmlns="http://www.w3.org/2000/svg" viewBox="0 0 536 120" width="536" height="120" role="img" aria-label="Luv2code logo">

<defs>
  <linearGradient id="g2" x1="0" y1="0" x2="0" y2="1">
    <stop offset="0" stop-color="#1B2230"/>
    <stop offset="1" stop-color="#10141C"/>
  </linearGradient>
  <linearGradient id="g2_sheen" x1="0" y1="0" x2="0" y2="1">
    <stop offset="0" stop-color="#ffffff" stop-opacity="0.10"/>
    <stop offset="0.5" stop-color="#ffffff" stop-opacity="0"/>
  </linearGradient>
</defs>
<g transform="translate(0,0)"><rect x="0" y="0" width="120" height="120" rx="30.6" fill="url(#g2)"/>
<rect x="0" y="0" width="120" height="120" rx="30.6" fill="url(#g2_sheen)"/>
<rect x="0.8" y="0.8" width="118.4" height="118.4" rx="29.8" fill="none" stroke="rgba(255,255,255,0.06)" stroke-width="1.6"/>
<path d="M47.70 42.90 L13.50 60.00 L47.70 77.10" fill="none" stroke="#3DDC97" stroke-width="8.639999999999999" stroke-linecap="round" stroke-linejoin="round"/>
<path d="M72.30 42.90 L106.50 60.00 L72.30 77.10" fill="none" stroke="#3DDC97" stroke-width="8.639999999999999" stroke-linecap="round" stroke-linejoin="round"/>
<g transform="translate(42.90,45.09) scale(0.3420)"><path d="M50 89 C 16 62 2 42 2 25 C 2 10 13 1 26 1 C 37 1 45 8 50 18 C 55 8 63 1 74 1 C 87 1 98 10 98 25 C 98 42 84 62 50 89 Z" fill="#FF4D6D" /></g></g>
<g transform="translate(154.00,90.00)"><g transform="translate(0.000,0) scale(0.08219,-0.08219)"><path d="M115 0V730H265V135H560V0Z" fill="#12161F"/></g>
<g transform="translate(47.671,0) scale(0.08219,-0.08219)"><path d="M300 -10Q189 -10 126.5 50.0Q64 110 64 214V550H214V215Q214 120 300 120Q341 120 363.5 144.5Q386 169 386 215V550H536V214Q536 109 473.0 49.5Q410 -10 300 -10Z" fill="#12161F"/></g>
<g transform="translate(95.342,0) scale(0.08219,-0.08219)"><path d="M207 0 24 550H179L275 241Q284 213 291.5 183.0Q299 153 301 127Q303 153 310.0 183.0Q317 213 325 240L419 550H576L395 0Z" fill="#12161F"/></g>
<g transform="translate(143.014,0) scale(0.08219,-0.08219)"><path d="M65 0V134L342 409Q384 451 384 510Q384 551 359.5 578.0Q335 605 295 605Q254 605 228.5 577.0Q203 549 203 505H53Q53 575 84.5 627.5Q116 680 171.5 710.0Q227 740 300 740Q371 740 424.0 712.5Q477 685 507.0 635.5Q537 586 537 521Q537 463 512.0 408.5Q487 354 431 301L257 135H545V0Z" fill="#FF4D6D"/></g>
<g transform="translate(190.685,0) scale(0.08219,-0.08219)"><path d="M309 -10Q236 -10 181.0 17.5Q126 45 96.0 94.5Q66 144 66 210V340Q66 407 96.0 456.0Q126 505 181.0 532.5Q236 560 309 560Q418 560 483.0 505.0Q548 450 552 355H406Q403 390 376.5 410.0Q350 430 309 430Q264 430 240.0 407.0Q216 384 216 340V210Q216 167 240.0 143.5Q264 120 309 120Q350 120 376.5 139.5Q403 159 406 195H552Q548 100 483.0 45.0Q418 -10 309 -10Z" fill="#12161F"/></g>
<g transform="translate(238.356,0) scale(0.08219,-0.08219)"><path d="M300 -10Q227 -10 173.0 17.5Q119 45 89.5 94.5Q60 144 60 210V340Q60 406 89.5 455.5Q119 505 173.0 532.5Q227 560 300 560Q374 560 427.5 532.5Q481 505 510.5 455.5Q540 406 540 340V210Q540 144 510.5 94.5Q481 45 427.5 17.5Q374 -10 300 -10ZM300 120Q344 120 367.0 143.5Q390 167 390 210V340Q390 384 367.0 407.0Q344 430 300 430Q257 430 233.5 407.0Q210 384 210 340V210Q210 167 233.5 143.5Q257 120 300 120Z" fill="#12161F"/></g>
<g transform="translate(286.027,0) scale(0.08219,-0.08219)"><path d="M238 -10Q159 -10 109.5 48.5Q60 107 60 205V345Q60 443 109.5 501.5Q159 560 238 560Q293 560 331.5 532.5Q370 505 388 454L384 580V730H534V0H389V99Q371 47 332.0 18.5Q293 -10 238 -10ZM296 120Q339 120 361.5 144.5Q384 169 384 215V335Q384 381 361.5 405.5Q339 430 296 430Q255 430 232.5 407.0Q210 384 210 340V210Q210 167 232.5 143.5Q255 120 296 120Z" fill="#12161F"/></g>
<g transform="translate(333.699,0) scale(0.08219,-0.08219)"><path d="M301 -10Q228 -10 173.5 17.5Q119 45 89.5 94.5Q60 144 60 210V340Q60 406 89.5 455.5Q119 505 173.5 532.5Q228 560 301 560Q374 560 427.5 532.5Q481 505 510.5 455.5Q540 406 540 340V238H203V210Q203 158 227.5 134.0Q252 110 301 110Q333 110 357.0 120.0Q381 130 385 150H532Q516 78 453.0 34.0Q390 -10 301 -10ZM203 340V327L397 329V342Q397 393 373.5 421.0Q350 449 301 449Q252 449 227.5 420.0Q203 391 203 340Z" fill="#12161F"/></g></g>
</svg>
